<svg xmlns="http://www.w3.org/2000/svg" width="208" height="22" viewBox="0 0 208 22">
    <g fill="#34616E" fill-rule="evenodd">
        <path d="M158.491 12.206a.75.75 0 0 1 .037.437.783.783 0 0 1-.258.462.815.815 0 0 1-.449.197c-.165.015-.366 0-.602-.042l-.41-.078c-.135-.027-.216-.047-.246-.068a.125.125 0 0 1-.051-.086c-.003-.03.008-.133.037-.3l.227-1.19.725.132c.318.06.548.133.691.217a.708.708 0 0 1 .3.319zm.039-2.502c-.129-.07-.374-.137-.733-.203l-.613-.113-.256 1.34.614.113c.32.057.563.075.727.05a.736.736 0 0 0 .392-.175.616.616 0 0 0 .185-.347.62.62 0 0 0-.04-.39.571.571 0 0 0-.276-.275zm5.435 1.665c0 3.52-2.903 6.368-6.484 6.368-3.58 0-6.481-2.849-6.481-6.368C151 7.849 153.901 5 157.48 5c3.582 0 6.485 2.849 6.485 6.369zm-3.815-1.683a1.443 1.443 0 0 0-.55-.598 1.858 1.858 0 0 0-.356-.172l.183-.968-.946-.175-.174.905-.608-.112.174-.905-.948-.175-.174.906-1.446-.266-.144.76.22.041c.15.025.246.057.292.094a.217.217 0 0 1 .09.126c.012.049.004.154-.028.319l-.584 3.063c-.03.16-.058.262-.09.303a.24.24 0 0 1-.13.086c-.058.016-.159.01-.306-.02l-.222-.037-.144.757 1.445.264-.171.904.948.175.17-.904.54.098.069.012-.171.905.946.172.188-.979c.164-.003.311-.017.44-.038.353-.068.64-.21.867-.424.225-.21.366-.462.42-.754a1.279 1.279 0 0 0-.44-1.248 2.464 2.464 0 0 0-.558-.325c.259-.037.474-.103.646-.203a1.3 1.3 0 0 0 .424-.37c.11-.149.184-.316.216-.496a1.129 1.129 0 0 0-.088-.721zm11.977 3.112c0 2.303-1.533 4.935-4.777 4.935-1.71 0-2.565-.728-2.565-1.984 0-.437.073-.87.161-1.288l1.461-7.17h2.136l-.853 4.044h.03a2.917 2.917 0 0 1 2.225-1.004c1.505.004 2.182 1.207 2.182 2.467zm-2.227.434c0-.679-.295-1.217-.942-1.217-.768 0-1.518.769-1.77 2.001l-.133.58c-.03.232-.088.478-.074.784.015.504.324.78.811.78 1.226-.003 2.108-1.682 2.108-2.928zm2.807 4.346h2.123l1.371-7.084h-2.123l-1.371 7.084zm2.89-10.166c-.65 0-1.211.479-1.224 1.187 0 .622.442 1.015 1.03 1.015.68 0 1.253-.435 1.253-1.173.001-.626-.442-1.029-1.06-1.029zm5.101 1.1l-2.167.495-.295 1.488h-.93l-.294 1.58h.915l-.562 2.824c-.102.538-.146.927-.146 1.318 0 .883.605 1.52 1.872 1.52.456 0 .985-.059 1.253-.158l.253-1.638c-.194.03-.397.03-.59.03-.459 0-.607-.25-.607-.597 0-.246.059-.61.119-.899l.488-2.405h1.53l.313-1.58h-1.533l.381-1.979zm1.215 6.316c0 1.837 1.252 2.894 3.033 2.894.858 0 1.595-.146 2.05-.363l-.015-1.594c-.37.145-.81.29-1.429.29-.798 0-1.415-.495-1.415-1.465 0-1.33.926-2.593 2.447-2.593.429 0 .724.073.974.174l.515-1.593c-.31-.132-.841-.25-1.458-.25-2.743.007-4.702 1.979-4.702 4.5zm13.635-1.58c0 2.592-1.797 4.49-4.305 4.49-1.825 0-3.052-1.174-3.052-2.928 0-2.461 1.739-4.475 4.305-4.475 1.934 0 3.052 1.304 3.052 2.912zm-2.196.012c0-.651-.277-1.345-1.134-1.345-1.223 0-1.841 1.752-1.824 2.851 0 .826.412 1.377 1.15 1.377 1.163.001 1.808-1.665 1.808-2.883zm5.722-5.848c-.649 0-1.21.479-1.221 1.187 0 .622.444 1.015 1.033 1.015.68 0 1.252-.435 1.252-1.173.002-.626-.443-1.029-1.064-1.029zm-2.886 10.166h2.12l1.374-7.084h-2.123l-1.37 7.084zm9.51-7.243c-.96 0-1.858.406-2.534 1.333h-.03l.148-1.173h-1.884c-.09.624-.208 1.406-.386 2.304l-.916 4.78h2.123l.604-3.144c.295-1.56 1.107-2.42 1.801-2.42.532 0 .708.349.708.842 0 .263-.03.553-.077.796l-.75 3.926h2.123l.798-4.113c.058-.347.118-.882.118-1.197-.003-1.224-.667-1.934-1.847-1.934zM97.688 2.814h-3.004c-.933 0-1.627.254-2.037 1.184l-5.773 13.074h4.083s.666-1.758.817-2.143l4.979.006c.116.498.474 2.137.474 2.137h3.607L97.688 2.814zm-4.795 9.196c.32-.819 1.549-3.987 1.549-3.987-.021.039.317-.825.518-1.362l.262 1.23.901 4.119h-3.23zm-5.747.394c-.028 2.963-2.684 4.875-6.771 4.875-1.743-.018-3.422-.361-4.332-.76l.547-3.193.501.228c1.277.532 2.104.747 3.661.747 1.117 0 2.313-.438 2.325-1.393.007-.625-.501-1.07-2.016-1.77-1.476-.683-3.43-1.827-3.405-3.876.021-2.773 2.729-4.708 6.571-4.708 1.506 0 2.713.31 3.483.599l-.526 3.092-.351-.165a7.178 7.178 0 0 0-2.91-.546c-1.522 0-2.228.634-2.228 1.227-.008.668.824 1.108 2.184 1.77 2.247 1.015 3.284 2.252 3.267 3.873zM53 2.962l.05-.286h6.028c.813.031 1.468.29 1.694 1.159l1.311 6.304C60.795 6.842 57.691 4.099 53 2.962zm17.581-.15l-6.123 14.239-4.114.007-3.482-11.897c2.503 1.602 4.635 4.144 5.386 5.914l.406 1.469 3.808-9.729 4.119-.003zm1.572-.012h3.89L73.61 17.066h-3.888L72.153 2.8zM143.612 16.794a.372.372 0 0 0-.178-.047.369.369 0 0 0-.315.18.352.352 0 0 0 .135.485.376.376 0 0 0 .36 0 .343.343 0 0 0 .135-.134.342.342 0 0 0 0-.352.33.33 0 0 0-.137-.132zm-.086.507l-.034-.06a.318.318 0 0 0-.067-.09.087.087 0 0 0-.05-.015h-.036v.164h-.064v-.384h.135c.047 0 .08.004.099.012.02.007.038.018.05.037a.095.095 0 0 1 .017.056c0 .028-.01.052-.03.074a.127.127 0 0 1-.082.035.085.085 0 0 1 .034.02c.016.015.035.04.058.075l.048.075h-.078v.001zm-.037-.233c-.014.013-.038.016-.075.016h-.077v-.114h.072c.03 0 .05.003.062.007.013.005.02.013.028.018.006.011.009.02.009.031a.05.05 0 0 1-.02.042zm-.358-3.863a.3.3 0 0 0-.154.258c0 .051.014.101.04.147a.313.313 0 0 0 .262.152.31.31 0 0 0 .263-.152.29.29 0 0 0-.002-.295.29.29 0 0 0-.113-.11.3.3 0 0 0-.296 0zm.274.12a.087.087 0 0 1 .018.056c0 .028-.011.051-.031.072-.02.022-.048.031-.081.035a.108.108 0 0 1 .033.02.388.388 0 0 1 .058.075l.048.076h-.078l-.035-.06a.307.307 0 0 0-.065-.089.08.08 0 0 0-.051-.014h-.036v.162h-.065v-.382h.136c.046 0 .08.004.1.012a.11.11 0 0 1 .049.036zm-.15.002c.032 0 .051.004.064.008a.07.07 0 0 1 .027.019.05.05 0 0 1 .01.031.058.058 0 0 1-.019.043c-.014.011-.038.016-.075.016h-.077v-.116h.07zm-8.305-1.571c.204 0 .226.02.26.027.023.196-.126 1.12-.846 1.12-.372 0-.469-.276-.469-.441 0-.321.178-.706 1.055-.706zm-19.402 0c.205 0 .227.02.261.027.023.196-.126 1.12-.847 1.12-.371 0-.468-.276-.468-.441 0-.321.177-.706 1.054-.706zM133.317 0a11.337 11.337 0 0 0-7.54 2.843 11.34 11.34 0 0 0-7.536-2.84h-.072C111.997.041 107 4.952 107 10.998c0 6.07 5.036 10.996 11.241 10.996 2.898 0 5.541-1.075 7.536-2.84a10.976 10.976 0 0 1-1.15-1.202h2.321a11.1 11.1 0 0 1-1.141 1.178h-.002c-.009.01-.019.016-.028.024A11.339 11.339 0 0 0 133.322 22c6.208-.002 11.24-4.927 11.238-11v-.005c0-6.073-5.034-10.996-11.243-10.994zm-21.728 13.8l.681-4.204-1.537 4.204h-.825l-.107-4.204-.728 4.204h-1.155l.957-5.576h1.747l.06 3.422 1.18-3.422h1.895l-.944 5.576h-1.224zm4.083-.006l.04-.448c-.02.002-.384.538-1.228.538-.442 0-1.156-.236-1.156-1.262 0-1.304 1.087-1.737 2.123-1.737.163 0 .514.03.514.03s.04-.08.04-.296c0-.354-.326-.403-.772-.403-.786 0-1.305.206-1.305.206l.174-1.009s.63-.258 1.45-.258c.424 0 1.644.044 1.644 1.412l-.47 3.224h-1.054v.003zm4.454-1.422c0 1.556-1.54 1.489-1.81 1.489-1.004 0-1.314-.136-1.343-.144l.16-1.024c.001-.009.504.179 1.063.179.323 0 .741-.032.741-.409 0-.564-1.498-.429-1.498-1.77 0-1.182.898-1.528 1.784-1.528.684 0 1.104.092 1.104.092l-.151 1.033s-.65-.052-.817-.052c-.426 0-.658.09-.658.382 0 .585 1.425.297 1.425 1.752zm1.85.407c.107 0 .227-.036.31-.036l-.15.995c-.12.032-.461.15-.898.154-.557.004-.954-.3-.954-.992 0-.465.68-4.29.707-4.315h1.197l-.122.684h.597l-.153 1.102h-.633l-.337 2.03c-.026.162.02.378.437.378zm2.633-3.64c1.313 0 1.707.94 1.707 1.712 0 .31-.159 1.068-.159 1.068h-2.432s-.224.937 1.06.937c.603 0 1.272-.289 1.272-.289l-.211 1.13s-.387.192-1.264.192c-.952 0-2.068-.394-2.068-2.048 0-1.433.891-2.701 2.095-2.702zm2.902 4.67h-1.228l.747-4.539h1.114l-.107.658s.397-.715.933-.715c.156 0 .231.015.231.015-.159.317-.299.608-.445 1.358-.831-.29-.895 1.283-1.245 3.222zm4.68-.071s-.643.16-1.046.16c-1.429 0-2.154-.964-2.154-2.424 0-2.202 1.344-3.375 2.725-3.375.625 0 1.348.287 1.348.287l-.195 1.24s-.49-.334-1.098-.334c-.815 0-1.545.76-1.545 2.141 0 .68.34 1.315 1.19 1.315.404 0 .99-.288.99-.288l-.214 1.278zm2.882.056l.04-.448c-.02.002-.384.538-1.228.538-.442 0-1.155-.236-1.155-1.262 0-1.304 1.087-1.737 2.122-1.737.163 0 .515.03.515.03s.04-.08.04-.295c0-.354-.326-.403-.772-.403-.786 0-1.304.206-1.304.206l.174-1.01s.63-.257 1.45-.257c.423 0 1.644.044 1.643 1.412l-.47 3.224c0 .002-1.055.002-1.055.002zm2.487.014h-1.229l.747-4.538h1.115l-.107.658s.398-.715.934-.715c.156 0 .23.015.23.015-.158.317-.3.608-.445 1.358-.832-.29-.895 1.283-1.245 3.222zm6.035-.522a.344.344 0 0 1 0 .353.354.354 0 0 1-.134.133.37.37 0 0 1-.36 0 .354.354 0 0 1 .001-.618.375.375 0 0 1 .178-.047.369.369 0 0 1 .315.179zm-1.747-3.488l.26-1.567 1.2-.002-.916 5.567h-1.164l.052-.418s-.397.49-1.115.49c-.995 0-1.483-.94-1.483-1.9 0-1.486.913-2.781 2.01-2.781.706.001 1.156.61 1.156.61zm-16.684 1.192h-1.328c0-.076.125-.802.777-.802.676 0 .551.743.551.802zm15.735-.675c.43 0 .652.289.652.97 0 .617-.313 1.445-.961 1.445-.432 0-.633-.355-.633-.91 0-.907.416-1.505.942-1.505zM9.035 6.603a2.043 2.043 0 0 0-.75-.809 3.513 3.513 0 0 0-1.193-.438 9.75 9.75 0 0 0-1.621-.128l-2.867.002a.718.718 0 0 0-.66.524L.015 14.156c-.07.284.117.522.415.522h1.373a.703.703 0 0 0 .659-.522l.471-2.04a.703.703 0 0 1 .658-.521h.393c1.679-.002 2.979-.345 3.913-1.032.939-.688 1.402-1.597 1.402-2.723-.001-.493-.082-.907-.264-1.237zM6.074 9.348c-.415.304-.992.456-1.736.456h-.336c-.299 0-.482-.236-.417-.524l.413-1.784c.058-.286.359-.523.654-.521l.45-.003c.525 0 .926.091 1.194.267.265.174.398.451.396.818.008.558-.205.987-.618 1.291zm18.874-1.097l-5.47 9.251c-.176.289-.565.522-.861.522l-1.422.002c-.295 0-.392-.235-.212-.523l1.216-2.118s.098-.123.011-.813c-.187-1.251-1.121-6.566-1.121-6.566-.067-.288.115-.524.411-.524l1.23-.002c.377 0 .68.248.748.538l.612 3.687.228.003c.191-.339 2.157-3.713 2.157-3.713.188-.285.568-.524.864-.524 0 0 1.321.004 1.646 0 .489-.011-.037.78-.037.78zm9.019-1.617a2.124 2.124 0 0 0-.756-.812 3.37 3.37 0 0 0-1.193-.438 9.44 9.44 0 0 0-1.615-.126l-2.871.002a.713.713 0 0 0-.655.522l-1.931 8.406c-.07.285.122.521.414.521l1.375-.002a.712.712 0 0 0 .66-.52l.465-2.041a.712.712 0 0 1 .66-.521h.393c1.681 0 2.984-.346 3.922-1.031.927-.693 1.396-1.6 1.396-2.727-.005-.491-.09-.906-.264-1.233zm-2.961 2.749c-.414.298-.992.45-1.732.45h-.342a.411.411 0 0 1-.42-.523l.416-1.781a.698.698 0 0 1 .656-.521l.445-.003c.528.003.924.09 1.194.266.269.176.396.452.399.818.003.558-.204.988-.616 1.294zM15.655 7.804c-.518-.292-1.336-.438-2.454-.438-.553 0-1.104.043-1.661.129-.411.063-.451.075-.704.13-.522.114-.604.635-.604.635l-.168.691c-.095.441.159.424.265.387.228-.068.355-.138.821-.242.445-.101.914-.177 1.286-.172.549 0 .969.058 1.249.176.276.12.414.326.414.624l-.024.194-.198.122c-.779.049-1.342.121-2.025.22-.668.093-1.254.256-1.741.479-.523.23-.911.539-1.182.932-.262.395-.393.874-.393 1.436 0 .529.19.966.559 1.304.371.332.861.494 1.447.494.371-.002.658-.031.862-.08l.665-.229.563-.312.518-.342.007.01-.052.22-.003.009v.002c-.056.268.106.488.367.514l.005.006h1.275l.018-.008a.71.71 0 0 0 .591-.514l1.001-4.333.052-.353.024-.331c.004-.614-.261-1.069-.78-1.36zm-2.214 4.872l-.214.282-.54.279a1.923 1.923 0 0 1-.718.155c-.338 0-.603-.049-.782-.149l-.265-.515c0-.279.064-.5.201-.67l.582-.396c.249-.084.553-.155.905-.204.314-.039.934-.11 1.015-.112l.095.167c-.018.095-.194.831-.279 1.163zm34.282-7.915h.459v.189h-.459v.611l.002.165.033.11.072.07.141.022.115-.016.086-.026h.012v.201l-.139.027-.131.011-.312-.112-.106-.352V4.95h-.154v-.189h.154V4.38h.227v.381zM40.592 7.81c-.521-.292-1.338-.439-2.453-.439-.553 0-1.105.043-1.66.132-.412.06-.453.073-.707.127-.521.113-.602.636-.602.636l-.168.69c-.094.441.154.421.27.387.229-.068.352-.135.814-.243.443-.1.916-.174 1.289-.172.547 0 .967.059 1.246.177.278.12.414.328.414.623l-.021.193-.196.125c-.787.047-1.351.119-2.027.218-.666.093-1.254.255-1.742.479-.521.231-.914.54-1.182.934-.265.395-.394.873-.394 1.43 0 .533.188.97.562 1.306.373.331.858.497 1.444.497.369-.004.656-.028.861-.081l.663-.226.568-.312.514-.346.009.011-.047.222-.005.004.002.004c-.062.268.101.49.365.514l.002.005h1.274l.021-.007a.703.703 0 0 0 .584-.518l1.004-4.327.053-.355.029-.332c.001-.612-.261-1.065-.784-1.356zm-2.209 4.872l-.223.285-.535.277a1.945 1.945 0 0 1-.715.155c-.349 0-.607-.05-.781-.15l-.268-.513c0-.28.065-.499.196-.672.133-.163.336-.297.588-.395a5.1 5.1 0 0 1 .904-.203c.312-.039.93-.112 1.01-.113l.097.167c-.014.095-.191.828-.273 1.162zm7.357-6.833l.004.001-1.838 8.331-.066.1c-.107.234-.342.424-.592.424h-1.277l-.021-.029c-.244-.037-.402-.231-.345-.488l-.002-.006.056-.24 1.719-7.814.062-.272.068-.106c.111-.23.338-.417.59-.417h1.23c.295-.004.475.229.412.516zm4.561-.991l.105.373v.867h-.224v-.763l-.015-.163-.028-.129-.08-.077-.147-.027-.188.047-.19.121.004.065.004.071v.854h-.223v-.763l-.011-.165-.033-.128-.075-.077-.152-.027-.186.046-.187.116v.997h-.222V4.761h.223v.148l.211-.136.223-.049.232.055.143.159.246-.166.242-.049.328.135z"/>
    </g>
</svg>
